<svg width="888" height="839" viewBox="0 0 888 839" fill="none" xmlns="http://www.w3.org/2000/svg">
<rect x="116" y="182.205" width="71" height="71" rx="5" transform="rotate(-45 116 182.205)" fill="#4D4C78"/>
<path fill-rule="evenodd" clip-rule="evenodd" d="M811.83 744.788C809.162 745.503 807.579 748.245 808.294 750.912L822.788 805.004C823.503 807.671 826.244 809.254 828.912 808.539L883.004 794.045C885.671 793.33 887.254 790.589 886.539 787.921L872.045 733.83C871.331 731.162 868.589 729.579 865.921 730.294L811.83 744.788ZM815.504 746.909C812.836 747.624 811.254 750.366 811.968 753.033L824.909 801.329C825.624 803.996 828.366 805.58 831.033 804.865L879.329 791.924C881.997 791.209 883.579 788.467 882.865 785.8L869.924 737.504C869.209 734.837 866.468 733.254 863.8 733.968L815.504 746.909Z" fill="#F31212"/>
<path fill-rule="evenodd" clip-rule="evenodd" d="M770 514C811.421 514 845 480.421 845 439C845 397.579 811.421 364 770 364C728.579 364 695 397.579 695 439C695 480.421 728.579 514 770 514ZM770 510C809.212 510 841 478.212 841 439C841 399.788 809.212 368 770 368C730.788 368 699 399.788 699 439C699 478.212 730.788 510 770 510Z" fill="#E34D4D"/>
<path d="M823.419 681.868H124.415C111.483 681.868 101 692.364 101 705.312V705.319C101 718.267 111.483 728.763 124.415 728.763H823.419C836.351 728.763 846.834 718.267 846.834 705.319V705.312C846.834 692.364 836.351 681.868 823.419 681.868Z" fill="#4D4C78"/>
<path d="M823.42 681.868H134.366C134.327 682.376 134.327 682.884 134.327 683.391C134.322 686.473 134.924 689.526 136.098 692.375C137.272 695.224 138.996 697.813 141.171 699.994C143.346 702.175 145.929 703.906 148.772 705.086C151.615 706.267 154.663 706.875 157.742 706.875H846.756C846.795 706.327 846.834 705.82 846.834 705.312C846.834 702.233 846.229 699.184 845.052 696.34C843.875 693.496 842.15 690.911 839.976 688.734C837.802 686.557 835.221 684.83 832.38 683.652C829.539 682.474 826.494 681.868 823.42 681.868Z" fill="#323150"/>
<path d="M702.564 214.931L597.531 233.475L676.014 679.13L781.047 660.586L702.564 214.931Z" fill="#67BAEB"/>
<path d="M281.8 194H166.444V683.411H281.8V194Z" fill="#67BAEB"/>
<path d="M586.229 194H470.873V683.411H586.229V194Z" fill="#F44533"/>
<path d="M470.873 683.391H586.229V194H566.717V661.198H470.873V683.391Z" fill="#DE3226"/>
<path d="M376.473 227.642H281.8V683.399H376.473V227.642Z" fill="#F4C23F"/>
<path d="M351.732 227.642V596.571C351.732 635.214 320.434 666.59 281.8 666.59V683.391H376.473V227.642H351.732Z" fill="#F4A93F"/>
<path d="M470.873 257.729H376.2V683.415H470.873V257.729Z" fill="#C8C2E9"/>
<path d="M452.727 257.729V591.765C452.727 634.081 418.463 668.388 376.2 668.388V683.392H470.873V257.729H452.727Z" fill="#B9B1E0"/>
<path d="M281.8 271.17H166.444V305.199H281.8V271.17Z" fill="#4D4C78"/>
<path d="M281.8 572.229H166.444V606.257H281.8V572.229Z" fill="#4D4C78"/>
<path d="M338.815 295.473H315.127V626.482H338.815V295.473Z" fill="#F4A93F"/>
<path d="M444.922 326.146H402.151C400.081 326.146 398.096 325.323 396.632 323.857C395.169 322.391 394.346 320.404 394.346 318.331C394.346 316.259 395.169 314.271 396.632 312.805C398.096 311.34 400.081 310.517 402.151 310.517H444.922C446.992 310.517 448.977 311.34 450.441 312.805C451.905 314.271 452.727 316.259 452.727 318.331C452.727 320.404 451.905 322.391 450.441 323.857C448.977 325.323 446.992 326.146 444.922 326.146Z" fill="#4D4C78"/>
<path d="M444.922 365.727H402.151C400.081 365.727 398.096 364.904 396.632 363.438C395.169 361.973 394.346 359.985 394.346 357.912C394.346 355.84 395.169 353.852 396.632 352.387C398.096 350.921 400.081 350.098 402.151 350.098H444.922C446.992 350.098 448.977 350.921 450.441 352.387C451.905 353.852 452.727 355.84 452.727 357.912C452.727 359.985 451.905 361.973 450.441 363.438C448.977 364.904 446.992 365.727 444.922 365.727Z" fill="#4D4C78"/>
<path d="M444.922 405.269H402.151C400.081 405.269 398.096 404.446 396.632 402.98C395.169 401.515 394.346 399.527 394.346 397.454C394.346 395.382 395.169 393.394 396.632 391.928C398.096 390.463 400.081 389.64 402.151 389.64H444.922C446.992 389.64 448.977 390.463 450.441 391.928C451.905 393.394 452.727 395.382 452.727 397.454C452.727 399.527 451.905 401.515 450.441 402.98C448.977 404.446 446.992 405.269 444.922 405.269Z" fill="#4D4C78"/>
<path d="M437.585 642.521H409.488C407.418 642.521 405.433 641.698 403.969 640.232C402.505 638.767 401.683 636.779 401.683 634.706C401.683 632.634 402.505 630.646 403.969 629.18C405.433 627.715 407.418 626.892 409.488 626.892H437.585C439.655 626.892 441.641 627.715 443.104 629.18C444.568 630.646 445.39 632.634 445.39 634.706C445.39 636.779 444.568 638.767 443.104 640.232C441.641 641.698 439.655 642.521 437.585 642.521Z" fill="#4D4C78"/>
<path d="M507.205 608.566C505.138 608.556 503.159 607.73 501.697 606.266C500.236 604.803 499.41 602.821 499.4 600.752V276.679C499.4 274.606 500.222 272.619 501.686 271.153C503.15 269.688 505.135 268.864 507.205 268.864C509.275 268.864 511.26 269.688 512.724 271.153C514.187 272.619 515.01 274.606 515.01 276.679V600.752C515.01 601.778 514.808 602.794 514.416 603.742C514.023 604.69 513.449 605.552 512.724 606.278C511.999 607.003 511.139 607.579 510.192 607.972C509.245 608.364 508.23 608.566 507.205 608.566Z" fill="#B11A31"/>
<path d="M549.859 608.566C547.789 608.566 545.803 607.743 544.34 606.278C542.876 604.812 542.054 602.824 542.054 600.752V276.679C542.054 274.606 542.876 272.619 544.34 271.153C545.803 269.688 547.789 268.864 549.859 268.864C551.929 268.864 553.914 269.688 555.378 271.153C556.841 272.619 557.663 274.606 557.663 276.679V600.752C557.653 602.821 556.828 604.803 555.366 606.266C553.905 607.73 551.925 608.556 549.859 608.566Z" fill="#B11A31"/>
<path d="M770.932 600.986L665.917 619.624L668.649 635.019L773.663 616.381L770.932 600.986Z" fill="#4D4C78"/>
<path d="M710.241 258.562L605.207 277.105L607.918 292.497L712.951 273.954L710.241 258.562Z" fill="#4D4C78"/>
<path d="M730.346 371.353L727.615 355.998L622.6 374.596L625.332 389.991L730.346 371.353Z" fill="#4D4C78"/>
<path d="M756.376 518.503L753.644 503.108L648.59 521.746L651.322 537.141L756.376 518.503Z" fill="#4D4C78"/>
<path opacity="0.1" d="M248.473 576.37V194H281.8V683.391H166.444V658.502C211.751 658.502 248.473 621.734 248.473 576.37Z" fill="#323150"/>
<path opacity="0.1" d="M702.6 214.436L675.868 219.202L737.8 569.611C745.137 611.028 717.546 650.57 676.141 657.877L672.785 658.502L676.337 678.664L781.39 660.065L702.6 214.436Z" fill="#323150"/>
<path d="M191.732 355.138C191.732 348.146 186.071 342.479 179.088 342.479C172.105 342.479 166.444 348.146 166.444 355.138V534.859C166.444 541.851 172.105 547.519 179.088 547.519C186.071 547.519 191.732 541.851 191.732 534.859V355.138Z" fill="#83D0FB"/>
<g opacity="0.2">
<path d="M644.975 333.215C643.624 325.543 636.317 320.42 628.655 321.773C620.993 323.126 615.877 330.441 617.228 338.113L651.916 535.086C653.267 542.758 660.574 547.881 668.236 546.528C675.898 545.175 681.015 537.859 679.664 530.188L644.975 333.215Z" fill="white"/>
<path d="M665.995 546.519C662.637 546.514 659.388 545.324 656.819 543.159C654.25 540.994 652.524 537.991 651.946 534.679L617.137 337.712C616.478 333.981 617.324 330.142 619.49 327.036C621.656 323.93 624.964 321.811 628.688 321.144C632.424 320.485 636.268 321.337 639.377 323.513C642.487 325.688 644.607 329.01 645.273 332.749L680.083 529.717C680.742 533.447 679.895 537.287 677.729 540.393C675.564 543.499 672.256 545.617 668.532 546.284C667.695 546.44 666.846 546.518 665.995 546.519ZM631.185 321.34C630.373 321.342 629.563 321.421 628.766 321.574C626.972 321.89 625.259 322.558 623.724 323.539C622.189 324.52 620.863 325.795 619.822 327.291C618.781 328.787 618.046 330.475 617.659 332.256C617.272 334.038 617.24 335.879 617.566 337.672L652.376 534.601C653.023 538.225 655.078 541.445 658.092 543.554C661.106 545.664 664.832 546.491 668.454 545.854C670.243 545.538 671.953 544.872 673.485 543.893C675.017 542.915 676.341 541.643 677.382 540.152C678.422 538.66 679.158 536.977 679.548 535.2C679.938 533.423 679.974 531.586 679.654 529.795L644.844 332.827C644.276 329.612 642.596 326.699 640.099 324.599C637.602 322.499 634.447 321.345 631.185 321.34Z" fill="#231F20"/>
</g>
<path d="M191.732 218.421C191.732 211.429 186.071 205.761 179.088 205.761C172.105 205.761 166.444 211.429 166.444 218.421V245.44C166.444 252.432 172.105 258.1 179.088 258.1C186.071 258.1 191.732 252.432 191.732 245.44V218.421Z" fill="#83D0FB"/>
<path d="M300.766 244.991C300.766 239.747 296.52 235.496 291.283 235.496C286.046 235.496 281.8 239.747 281.8 244.991V455.162C281.8 460.405 286.046 464.656 291.283 464.656C296.52 464.656 300.766 460.405 300.766 455.162V244.991Z" fill="#FAD564"/>
<path d="M385.293 431.135H385.254C380.254 431.135 376.2 435.194 376.2 440.2V551.68C376.2 556.686 380.254 560.745 385.254 560.745H385.293C390.293 560.745 394.346 556.686 394.346 551.68V440.2C394.346 435.194 390.293 431.135 385.293 431.135Z" fill="#DFDAFD"/>
<path d="M416.044 257.729H383.693C379.555 257.729 376.2 261.087 376.2 265.231V272.549C376.2 276.692 379.555 280.051 383.693 280.051H416.044C420.182 280.051 423.537 276.692 423.537 272.549V265.231C423.537 261.087 420.182 257.729 416.044 257.729Z" fill="#DFDAFD"/>
<path d="M478.483 257.729H478.444C474.263 257.729 470.873 261.122 470.873 265.309V545.213C470.873 549.4 474.263 552.793 478.444 552.793H478.483C482.664 552.793 486.054 549.4 486.054 545.213V265.309C486.054 261.122 482.664 257.729 478.483 257.729Z" fill="#F46253"/>
<path d="M83.6077 597.967C81.0404 595.259 82.2366 590.795 85.8139 589.733L136.918 574.57C140.665 573.458 144.181 576.882 143.169 580.657L128.741 634.504C127.73 638.279 122.972 639.486 120.283 636.65L83.6077 597.967Z" fill="#DCCB31"/>
<ellipse cx="786.5" cy="356.5" rx="12.5" ry="13.5" fill="#D9D9D9"/>
<path fill-rule="evenodd" clip-rule="evenodd" d="M571.536 165.234C569.583 167.187 569.583 170.352 571.536 172.305L601.234 202.004C603.187 203.956 606.352 203.956 608.305 202.004L638.004 172.305C639.956 170.352 639.956 167.187 638.004 165.234L608.305 135.536C606.352 133.583 603.187 133.583 601.234 135.536L571.536 165.234ZM574.878 165.234C572.926 167.187 572.926 170.352 574.878 172.305L601.234 198.661C603.187 200.613 606.352 200.613 608.305 198.661L634.661 172.305C636.613 170.352 636.613 167.187 634.661 165.234L608.305 138.878C606.352 136.926 603.187 136.926 601.234 138.878L574.878 165.234Z" fill="#1D72D8"/>
<circle cx="22" cy="461" r="22" fill="#D9D9D9"/>
<path d="M207 123L147 48" stroke="#FDF2F2" stroke-width="4" stroke-linecap="round" stroke-linejoin="round"/>
<path d="M282 115L300 15" stroke="#FDF2F2" stroke-width="4" stroke-linecap="round" stroke-linejoin="round"/>
<path d="M243 115L224 2" stroke="#FDF2F2" stroke-width="4" stroke-linecap="round" stroke-linejoin="round"/>
<path d="M293.5 807.5C349.333 823.167 479.4 839.3 553 778.5" stroke="#FDF2F2" stroke-width="4" stroke-linecap="round" stroke-linejoin="round"/>
<path d="M529 837L552 780" stroke="#FDF2F2" stroke-width="4" stroke-linecap="round" stroke-linejoin="round"/>
</svg>
