<svg width="1290" height="1274" viewBox="0 0 1290 1274" fill="none" xmlns="http://www.w3.org/2000/svg">
<g clip-path="url(#clip0_40_8)">
<path d="M645 1244C1001.22 1244 1290 965.521 1290 622C1290 278.479 1001.22 0 645 0C288.776 0 0 278.479 0 622C0 965.521 288.776 1244 645 1244Z" fill="#F2F3F5"/>
<path d="M642.5 1206.94C969.176 1206.94 1234 948.62 1234 629.969C1234 311.318 969.176 53 642.5 53C315.824 53 51 311.318 51 629.969C51 948.62 315.824 1206.94 642.5 1206.94Z" fill="#12131A"/>
<path d="M616.524 603.181V633.327H669.889V603.167C661.071 604.859 652.168 605.81 643.208 605.81C634.221 605.81 625.346 604.859 616.524 603.181Z" fill="#FAFAFE"/>
<path d="M892.88 559.988L794.447 530.288C794.447 530.288 794.447 530.288 794.447 530.302L783.555 527.028C776.503 535.963 769.093 544.116 761.463 551.639L789.497 560.084C771.499 660.37 737.38 770.615 695.381 824.646L670.056 653.31H616.332L591.008 824.574C549.037 770.529 514.916 660.329 496.943 560.07L524.953 551.624C517.294 544.116 509.911 535.949 502.832 527.013L393.535 559.986C369.037 567.355 352.281 590.104 352.281 615.917V664.425C352.281 826.938 482.51 958.672 643.21 958.672C643.238 958.672 643.238 958.672 643.238 958.672C803.907 958.672 934.137 826.938 934.137 664.425V615.917C934.133 590.104 917.379 567.355 892.88 559.988Z" fill="#FFF4F4"/>
<path d="M486.076 441.997C516.546 508.123 572.62 575.829 643.208 575.829C713.716 575.829 769.786 508.234 800.255 442.149C824.422 437.355 847.344 414.618 858.045 383.559C872.507 341.442 860.451 299.997 830.642 287.945C820.551 185.197 740.149 106.275 643.208 106.275C546.24 106.275 465.838 185.197 455.743 287.947C440.981 293.957 429.866 307.801 425.027 326.26C420.493 343.724 421.679 364.084 428.399 383.559C438.989 414.327 461.523 436.935 486.076 441.997ZM743.518 176.079L745.012 190.858C746.397 204.885 750.238 218.531 756.376 231.186L792.488 305.87C785.659 310.875 779.879 316.316 775.207 321.604V321.561C775.207 317.423 771.862 314.067 767.797 314.067H666.794C662.703 314.067 659.386 317.423 659.386 321.561V337.165C648.851 333.992 637.541 333.992 627.01 337.179V321.561C627.01 317.423 623.692 314.067 619.599 314.067H518.599C514.531 314.067 511.212 317.409 511.186 321.547C506.541 316.275 500.764 310.851 493.959 305.87L530.071 231.186C536.209 218.531 540.054 204.885 541.435 190.858L542.955 176.025C570.387 151.457 605.058 136.256 643.213 136.256C681.337 136.256 716.064 151.482 743.518 176.079ZM681.418 350.043C679.206 347.792 676.747 345.891 674.175 344.13V329.055H760.384V357.051C760.384 367.117 752.31 375.3 742.359 375.3H692.231C684.157 375.3 677.574 369.844 675.253 362.446C675.612 362.503 675.833 362.84 676.192 362.84C678.071 362.84 679.981 362.097 681.416 360.642C684.324 357.706 684.324 352.967 681.418 350.043ZM605.024 360.642C606.711 362.334 608.922 362.741 611.134 362.489C608.813 369.856 602.202 375.298 594.156 375.298H544.029C534.073 375.298 526.003 367.117 526.003 357.049V329.053H612.184V344.182C609.67 345.932 607.207 347.804 605.024 350.04C602.121 352.967 602.121 357.706 605.024 360.642ZM453.698 333.907C455.162 328.342 458.869 318.525 467.497 315.508C468.409 315.184 470.235 314.989 471.146 314.907C471.204 314.902 471.262 314.895 471.321 314.887C476.99 314.228 482.685 315.819 487.218 319.326C499.765 329.037 508.299 341.335 511.18 345.92V357.051C511.18 375.382 525.92 390.288 544.029 390.288H594.156C612.294 390.288 627.005 375.382 627.005 357.051V353.094C637.287 348.548 649.123 348.52 659.381 353.022V357.051C659.381 375.382 674.088 390.288 692.229 390.288H742.357C760.466 390.288 775.203 375.382 775.203 357.051V346.004C778.081 341.469 786.698 328.98 799.403 319.192C804.618 315.174 811.354 313.705 817.74 315.206C818.311 315.34 818.733 315.444 818.919 315.508C832.025 320.121 839.848 345.179 830.06 373.705C821.242 399.295 803.296 413.095 790.549 413.095C783.47 413.513 779.101 416.534 776.699 422.098C750.899 481.933 702.292 545.863 643.206 545.863C584.09 545.863 535.482 481.933 509.688 422.098C507.337 416.618 501.393 413.095 495.478 413.095C483.09 413.095 465.172 399.295 456.382 373.705C451.652 359.986 450.684 345.473 453.698 333.907Z" fill="#FFFAFA"/>
<path d="M956.948 688.039H329.105V1162.19H956.948V688.039Z" fill="#FCFAFA"/>
<path d="M1044.55 576.161L662.826 703.207V1273.02L1044.55 1145.93C1055.53 1145.93 1064.38 1136.98 1064.38 1125.9V596.195C1064.4 585.115 1055.55 576.161 1044.55 576.161ZM984.652 961.852C984.652 972.947 975.77 981.886 964.816 981.886L756.828 1048.76C745.844 1048.76 736.977 1039.76 736.977 1028.68V827.079C736.977 815.999 745.844 807.045 756.828 807.045L964.816 740.176C975.785 740.176 984.652 749.174 984.652 760.255V961.852ZM241.492 576.161C230.508 576.161 221.655 585.115 221.655 596.195V1125.9C221.655 1136.98 230.508 1145.93 241.492 1145.93L623.138 1273.02V703.207L241.492 576.161ZM545.243 1054.56C542.667 1063.2 534.792 1068.79 526.25 1068.79C524.355 1068.79 522.431 1068.5 520.506 1067.92L301.342 1001.1C290.846 997.877 284.881 986.722 288.063 976.091C291.231 965.52 302.29 959.516 312.8 962.735L532.023 1029.56C542.46 1032.78 548.426 1043.93 545.243 1054.56ZM545.243 973.95C542.667 982.619 534.792 988.264 526.25 988.264C524.355 988.264 522.431 987.98 520.506 987.381L301.283 920.556C290.832 917.337 284.881 906.182 288.049 895.551C291.217 884.92 302.275 878.901 312.785 882.12L532.009 948.945C542.46 952.164 548.426 963.394 545.243 973.95ZM545.243 893.38C542.667 902.094 534.792 907.649 526.25 907.649C524.355 907.649 522.431 907.365 520.506 906.781L301.342 839.911C290.846 836.797 284.881 825.537 288.063 814.966C291.231 804.365 302.29 798.361 312.8 801.535L532.023 868.375C542.46 871.594 548.426 882.794 545.243 893.38ZM545.243 812.78C542.667 821.494 534.792 827.079 526.25 827.079C524.355 827.079 522.431 826.84 520.506 826.241L301.342 759.371C290.846 756.152 284.881 744.997 288.063 734.366C291.231 723.795 302.29 717.791 312.8 721.01L532.023 787.835C542.46 790.994 548.426 802.209 545.243 812.78Z" fill="#5624E4"/>
<path d="M571 372C579.837 372 587 365.06 587 356.5C587 347.94 579.837 341 571 341C562.163 341 555 347.94 555 356.5C555 365.06 562.163 372 571 372Z" fill="#F7E8E8"/>
<path d="M716 372C724.837 372 732 365.06 732 356.5C732 347.94 724.837 341 716 341C707.163 341 700 347.94 700 356.5C700 365.06 707.163 372 716 372Z" fill="#F9F3F3"/>
<path d="M604.933 495L562 446H723L686.846 495H604.933Z" stroke="#FCF2F2" stroke-width="10"/>
</g>
<defs>
<clipPath id="clip0_40_8">
<rect width="1290" height="1274" fill="white"/>
</clipPath>
</defs>
</svg>
