<svg width="419" height="252" viewBox="0 0 419 252" fill="none" xmlns="http://www.w3.org/2000/svg">
<path d="M213.876 248.37V165.516C213.876 165.093 214.143 164.715 214.542 164.574L274.21 143.427C274.861 143.197 275.544 143.679 275.544 144.37V218.034C275.544 218.411 275.333 218.755 274.997 218.926L215.329 249.261C214.664 249.599 213.876 249.116 213.876 248.37Z" fill="#C5D0D9" stroke="#9FA6AE"/>
<path d="M136.463 139V216.067C136.463 216.469 136.703 216.831 137.074 216.988L213.799 249.413C214.458 249.692 215.188 249.208 215.188 248.492V165.186C215.188 164.758 214.916 164.377 214.511 164.239L137.786 138.054C137.137 137.832 136.463 138.315 136.463 139Z" fill="#D5DDE7" stroke="#9FA6AE"/>
<path d="M202.062 120.653L201.192 159.903L214.669 164.364L273.795 142.955L202.062 120.653Z" fill="#8E99A3" stroke="#8E99A3"/>
<path d="M136.025 138.048L113.72 171.598L191.317 200.938L213.438 165.256L136.025 138.048Z" fill="#C5D0D9" stroke="#C5D0D9"/>
<path d="M201.193 120.653L137.338 137.602L201.193 159.903V120.653Z" fill="#A1ABB6" stroke="#A1ABB6"/>
<path d="M237.493 202.722L216.062 164.81L275.106 143.401L303.098 175.96L237.493 202.722Z" fill="#DAE2EC" stroke="#DAE2EC"/>
<g filter="url(#filter0_d_38_1339)">
<path d="M189.576 154.105C220.456 88.0938 248.183 114.409 248.183 114.409C248.183 114.409 256.967 156.339 199.71 135.372C153.904 118.598 150.651 58.2103 248.183 35.0171" stroke="#ACB8C4" stroke-width="2" stroke-linecap="round" stroke-linejoin="round" stroke-dasharray="15 10" shape-rendering="crispEdges"/>
</g>
<ellipse cx="8.32931" cy="7.12029" rx="8.32931" ry="7.12029" transform="matrix(0.937502 -0.347979 0.336136 0.941813 247.226 30.1028)" fill="#8B9AA8"/>
<path d="M274.738 29.0731C276.13 28.0511 279.337 26.9111 281.03 30.5272" stroke="#DAE2EC"/>
<path d="M274.415 26.9388C276.257 26.888 279.616 25.5779 278.316 20.7443" stroke="#DAE2EC"/>
<path d="M259.002 24.8252C254.892 23.2997 252.823 26.4873 251.864 27.8715C244.99 21.0484 248.768 9.16042 256.091 9.50558C263.415 9.85074 260.946 19.3766 259.002 24.8252Z" fill="#D9D9D9" stroke="#DAE2EC"/>
<path d="M261.947 41.0117C259.078 44.3778 255.753 42.6126 254.256 41.8763C251.488 51.2422 260.443 59.7721 266.685 55.8493C272.926 51.9265 266.238 44.8157 261.947 41.0117Z" fill="#D9D9D9" stroke="#DAE2EC"/>
<ellipse cx="5.699" cy="5.34022" rx="5.699" ry="5.34022" transform="matrix(0.937502 -0.347979 0.336136 0.941813 263.44 25.9823)" fill="#8B9AA8"/>
<path d="M251.393 30.5569L254.485 38.3593" stroke="#DAE2EC" stroke-width="3" stroke-linecap="round"/>
<path d="M255.766 29.6648L258.858 37.4673" stroke="#DAE2EC" stroke-width="3" stroke-linecap="round"/>
<path d="M260.14 28.7727L263.232 36.5752" stroke="#DAE2EC" stroke-width="3" stroke-linecap="round"/>
<path d="M23.1651 196.705L67.4119 204.681L67.7019 210.873L28.8826 228.632L28.8183 229.172L64.0435 232.973L63.5774 239.764L19.5398 232.907L20.4718 216.451L55.5933 208.469L55.6576 207.929L22.699 203.496L23.1651 196.705Z" fill="#455A64"/>
<path d="M64.2241 172.364C68.9945 173.652 72.1779 175.639 73.7742 178.324C75.3391 180.953 75.3322 185.06 73.7537 190.644C72.1751 196.228 69.6727 200.247 66.2464 202.703C62.9103 202.506 59.6667 201.982 56.5156 201.131C53.3645 200.28 50.5336 199.046 48.0231 197.429C45.4811 195.756 43.4165 193.978 41.8294 192.094C38.6046 188.171 36.7596 184.949 36.2944 182.429C39.6228 178.82 43.5753 175.92 48.1519 173.728C53.1772 171.282 58.5346 170.827 64.2241 172.364ZM60.3058 179.476C56.1481 178.353 52.0938 178.197 48.1431 179.008C49.0451 183.149 51.1327 186.929 54.4056 190.349C57.6785 193.768 61.3282 196.022 65.3546 197.109C66.0118 195.784 66.7104 193.813 67.4503 191.195C68.1903 188.578 68.4892 185.771 68.3471 182.774C65.8747 181.355 63.1943 180.256 60.3058 179.476Z" fill="#455A64"/>
<path d="M80.1393 170.977L53.5806 163.198L51.9206 169.279L45.2831 166.986L47.4012 161.387L38.1951 158.697L42.8252 142.295L52.4721 147.74L54.8235 141.429L58.9553 143.351L57.0441 150.359L82.2393 164.563L80.1393 170.977Z" fill="#455A64"/>
<path d="M69.2729 114.018C69.7211 113.336 70.2845 112.727 70.9631 112.19C74.6133 111.752 79.6119 113.018 85.9589 115.987C92.2674 118.932 98.301 122.212 104.06 125.829L98.2002 136.599C89.3702 131.054 81.1156 126.325 73.4364 122.413C72.0057 128.632 77.6721 136.927 90.4356 147.297L87.2561 153.248L45.1556 130.904L51.2486 117.551L73.5923 134.553L73.9284 134.041C71.0719 130.053 69.1958 126.306 68.3003 122.8C67.4297 119.256 67.7539 116.329 69.2729 114.018Z" fill="#455A64"/>
<path d="M108.619 124.941L81.7791 104.205L90.418 92.3449L112.925 119.747L108.619 124.941ZM77.7959 97.5104C76.0126 97.5034 74.4967 96.9063 73.2482 95.7193C71.9998 94.5324 71.3637 93.0834 71.3401 91.3724C71.3156 89.5981 71.9109 88.1004 73.1261 86.8794C74.3413 85.6584 75.8406 85.0514 77.6239 85.0585C79.4064 85.0022 80.9219 85.5675 82.1703 86.7545C83.4188 87.9415 84.0552 89.4222 84.0797 91.1965C84.1034 92.9074 83.5076 94.3734 82.2924 95.5944C81.0772 96.8155 79.5784 97.4541 77.7959 97.5104Z" fill="#455A64"/>
<path d="M119.269 71.2041C119.995 70.7414 120.778 70.404 121.617 70.1919C125.126 71.2884 129.168 74.4908 133.742 79.7991C138.291 85.0697 142.451 90.5339 146.223 96.1917L136.465 103.616C130.682 94.9405 125.088 87.2454 119.685 80.5306C115.832 85.6178 117.603 95.5055 124.999 110.194L119.661 114.319L98.0258 88.1195L109.055 78.4349L114.432 89.1964L114.948 88.8676C114.29 84.6119 114.32 80.9389 115.037 77.8486C115.755 74.7584 117.166 72.5435 119.269 71.2041Z" fill="#455A64"/>
<path d="M152.744 65.018C151.125 65.4557 149.833 66.1338 148.868 67.052C149.095 70.1839 149.659 73.3419 150.56 76.5262C151.461 79.7105 152.388 82.4885 153.342 84.8603C154.284 87.1884 155.053 88.7413 155.65 89.5191C157.639 88.5586 159.47 86.5376 161.142 83.4559C162.041 81.8042 162.538 79.6505 162.635 76.9948C162.763 74.2837 162.382 71.3578 161.493 68.2171C161.345 67.6937 161.03 66.7458 160.547 65.3737C158.102 64.3912 155.501 64.2726 152.744 65.018ZM169.701 106.71C165.325 107.893 160.386 107.585 154.883 105.786L155.795 102.018C160.171 102.666 163.628 102.647 166.167 101.961C168.749 101.263 170.439 100.078 171.238 98.406C172.081 96.7225 172.181 94.7466 171.539 92.4784C171.342 91.7805 169.518 87.0846 166.068 78.3909L165.543 78.5329C164.761 88.0888 160.476 93.9198 152.686 96.0257C151.636 96.3097 150.711 96.3718 149.912 96.2122C147.836 95.036 145.857 93.0354 143.974 90.2105C142.122 87.3301 140.647 83.9488 139.548 80.0666C138.129 75.0502 138.098 71.114 139.457 68.2579C140.848 65.3464 144.059 63.2103 149.092 61.8497C152.768 60.8559 156.187 60.8705 159.351 61.8936L160.258 59.6057L172.324 54.3009L178.145 92.1011C178.708 95.7526 178.272 98.8756 176.84 101.47C175.407 104.064 173.027 105.811 169.701 106.71Z" fill="#455A64"/>
<path d="M205.561 54.4912L207.444 81.1946L207.986 81.2401L219.25 57.9619L223.997 59.8622L228.229 83.1462L228.771 83.1918L238.113 57.7048L243.47 59.6564L229.812 91.5362L224.246 91.9555L215.747 75.2732L208.06 89.708L201.275 90.0248L191.418 55.4179L205.561 54.4912Z" fill="#455A64"/>
<path d="M243.689 93.3462C242.934 93.1914 242.383 93.0555 242.038 92.9383C240.746 91.6094 239.849 89.852 239.344 87.6663C238.893 85.4453 238.901 83.2488 239.367 81.0769C239.975 78.2401 241.483 76.3975 243.891 75.549C246.343 74.7097 250.455 74.8817 256.229 76.065C258.36 76.5019 260.548 77.1122 262.79 77.8958L262.971 76.4058C263.174 74.5964 262.63 73.0272 261.338 71.6983C260.057 70.325 258.239 69.3971 255.885 68.9147C253.531 68.4322 251.021 68.6811 248.353 69.6614L247.491 59.42C251.643 58.6515 256.161 58.7679 261.046 59.7692C265.932 60.7705 269.557 62.6706 271.924 65.4694C274.3 68.2239 274.989 71.9281 273.991 76.5822C273.762 77.646 273.537 78.4791 273.315 79.0814L267.513 97.0495L260.79 96.2961L261.859 86.4507L261.326 86.3415C259.131 89.2233 256.507 91.2998 253.452 92.571C250.407 93.7978 247.153 94.0562 243.689 93.3462ZM262.458 80.7429L258.941 79.9527C256.01 79.352 253.579 79.0156 251.647 78.9435C250.759 80.0572 250.21 81.1016 250.001 82.0767C249.792 83.0518 249.726 84.01 249.802 84.9511C249.878 85.8922 250.038 86.5497 250.283 86.9237C255.793 87.1739 259.851 85.1136 262.458 80.7429Z" fill="#455A64"/>
<path d="M278.806 77.2307C281.122 71.9101 286.064 68.2215 293.633 66.1648L300.945 77.3048C295.014 78.3243 291.343 80.4551 289.932 83.6974C289.191 85.4016 289.165 88.0171 289.854 91.5437C290.586 95.0877 290.617 97.6287 289.948 99.1667C287.578 104.612 281.983 107.244 273.164 107.063L272.002 102.235C276.087 101.823 278.6 100.536 279.541 98.3743C280.427 96.3375 280.146 93.1773 278.699 88.8936C278.159 87.2947 277.838 85.4187 277.737 83.2659C277.636 81.113 277.992 79.1013 278.806 77.2307Z" fill="#455A64"/>
<path d="M346.602 84.559L341.011 94.9977C336.836 93.4686 332.948 93.4886 329.348 95.0578L338.446 101.676L335.333 105.015L329.45 101.541L309.091 120.294L303.474 116.51L318.302 94.9185L313.246 91.942L317.472 86.3536L322.395 90.0105C326.616 85.616 330.878 83.0955 335.181 82.4489C339.513 81.7679 343.32 82.4712 346.602 84.559Z" fill="#455A64"/>
<path d="M344.496 140.536C340.572 143.538 337.029 144.879 333.869 144.558C330.773 144.244 327.411 141.823 323.784 137.294C320.157 132.764 318.367 128.427 318.415 124.282C320.582 121.767 322.962 119.519 325.554 117.535C328.147 115.552 330.86 114.047 333.695 113.019C336.595 111.999 339.294 111.418 341.793 111.275C346.947 111.041 350.697 111.482 353.042 112.598C353.998 117.345 353.998 122.167 353.043 127.064C352.026 132.464 349.177 136.955 344.496 140.536ZM341.024 133.263C344.444 130.646 347.01 127.542 348.721 123.95C344.784 122.225 340.431 121.647 335.66 122.215C330.89 122.784 326.848 124.335 323.536 126.869C324.226 128.167 325.422 129.877 327.122 132C328.822 134.123 330.943 136.01 333.485 137.661C336.134 136.547 338.647 135.081 341.024 133.263Z" fill="#455A64"/>
<path d="M349.132 160.802C351.833 161.42 354.475 161.493 357.06 161.019C359.644 160.546 361.783 159.926 363.476 159.159C365.211 158.374 368.439 156.614 373.162 153.879L381.438 166.103L347.423 176.725L343.983 170.894L355.171 164.337L354.967 163.907C345.353 164.577 338.974 161.594 335.829 154.957C335.363 153.974 335.14 153.08 335.16 152.275C336.731 149.027 340.387 145.63 346.131 142.084C351.915 138.52 357.864 135.355 363.976 132.588L370.729 144.457C363.152 146.991 357.568 149.072 353.975 150.698C350.382 152.325 346.666 154.38 342.827 156.864C344.39 158.893 346.492 160.206 349.132 160.802Z" fill="#455A64"/>
<path d="M388.283 197.758C388.479 198.597 388.537 199.443 388.457 200.297C386.239 203.16 381.843 205.766 375.268 208.113C368.738 210.451 362.155 212.36 355.518 213.839L351.741 202.141C361.918 199.873 371.101 197.431 379.288 194.817C375.75 189.428 365.768 187.543 349.341 189.161L347.215 182.738L379.347 172.023L384.843 185.707L372.822 186.853L372.961 187.449C377.223 188.357 380.7 189.695 383.394 191.464C386.087 193.232 387.717 195.33 388.283 197.758Z" fill="#455A64"/>
<path d="M353.744 222.533C353.715 221.445 353.873 220.534 354.216 219.8C355.894 218.08 358.419 216.656 361.79 215.528C365.163 214.446 368.934 213.852 373.104 213.747C378.496 213.612 382.489 214.555 385.082 216.575C387.676 218.642 389.041 222.28 389.179 227.492C389.263 230.709 388.713 233.92 387.527 237.124L402.116 235.737L404.742 250.228L355.547 247.111L354.758 240.397L366.427 239.219L366.413 238.675C358.164 235.391 353.941 230.01 353.744 222.533ZM385.17 230.246C385.125 228.569 384.771 227.149 384.105 225.987C380.826 225.434 377.441 225.202 373.951 225.29C366.7 225.472 361.84 226.048 359.372 227.017C359.793 229.228 361.418 231.523 364.246 233.9C365.73 235.133 367.819 236.123 370.515 236.872C373.211 237.666 376.282 238.019 379.726 237.933C380.406 237.916 381.469 237.844 382.917 237.716C384.495 235.636 385.246 233.146 385.17 230.246Z" fill="#455A64"/>
<defs>
<filter id="filter0_d_38_1339" x="163.827" y="34.0168" width="89.8398" height="129.089" filterUnits="userSpaceOnUse" color-interpolation-filters="sRGB">
<feFlood flood-opacity="0" result="BackgroundImageFix"/>
<feColorMatrix in="SourceAlpha" type="matrix" values="0 0 0 0 0 0 0 0 0 0 0 0 0 0 0 0 0 0 127 0" result="hardAlpha"/>
<feOffset dy="4"/>
<feGaussianBlur stdDeviation="2"/>
<feComposite in2="hardAlpha" operator="out"/>
<feColorMatrix type="matrix" values="0 0 0 0 0 0 0 0 0 0 0 0 0 0 0 0 0 0 0.25 0"/>
<feBlend mode="normal" in2="BackgroundImageFix" result="effect1_dropShadow_38_1339"/>
<feBlend mode="normal" in="SourceGraphic" in2="effect1_dropShadow_38_1339" result="shape"/>
</filter>
</defs>
</svg>
